<svg width="616" height="617" viewBox="0 0 616 617" fill="none" xmlns="http://www.w3.org/2000/svg">
  <defs>
    <linearGradient id="bg-gradient" x1="0%" y1="0%" x2="100%" y2="100%">
      <stop offset="0%" style="stop-color:#f59e0b;stop-opacity:0.1" />
      <stop offset="50%" style="stop-color:#d97706;stop-opacity:0.15" />
      <stop offset="100%" style="stop-color:#92400e;stop-opacity:0.2" />
    </linearGradient>
    <linearGradient id="accent-gradient" x1="0%" y1="0%" x2="100%" y2="100%">
      <stop offset="0%" style="stop-color:#f59e0b" />
      <stop offset="100%" style="stop-color:#d97706" />
    </linearGradient>
    <linearGradient id="neutral-gradient" x1="0%" y1="0%" x2="100%" y2="100%">
      <stop offset="0%" style="stop-color:#78716c" />
      <stop offset="100%" style="stop-color:#57534e" />
    </linearGradient>
  </defs>
  
  <!-- Background -->
  <rect width="616" height="617" rx="24" fill="url(#bg-gradient)" />
  
  <!-- Abstract Tech Background -->
  <g opacity="0.1">
    <!-- Grid Pattern -->
    <defs>
      <pattern id="grid" width="40" height="40" patternUnits="userSpaceOnUse">
        <path d="M 40 0 L 0 0 0 40" fill="none" stroke="#d97706" stroke-width="1"/>
      </pattern>
    </defs>
    <rect width="616" height="617" fill="url(#grid)" />
  </g>
  
  <!-- Central Professional Figure -->
  <g transform="translate(308, 308)">
    <!-- Professional silhouette -->
    <circle cx="0" cy="-80" r="40" fill="url(#neutral-gradient)" opacity="0.8"/>
    <rect x="-35" y="-45" width="70" height="90" rx="10" fill="url(#neutral-gradient)" opacity="0.8"/>
    
    <!-- AI/Tech Elements Around -->
    <!-- Neural Network Nodes -->
    <circle cx="-120" cy="-60" r="8" fill="url(#accent-gradient)" opacity="0.6"/>
    <circle cx="-80" cy="-100" r="6" fill="url(#accent-gradient)" opacity="0.6"/>
    <circle cx="-100" cy="-20" r="7" fill="url(#accent-gradient)" opacity="0.6"/>
    <circle cx="120" cy="-60" r="8" fill="url(#accent-gradient)" opacity="0.6"/>
    <circle cx="80" cy="-100" r="6" fill="url(#accent-gradient)" opacity="0.6"/>
    <circle cx="100" cy="-20" r="7" fill="url(#accent-gradient)" opacity="0.6"/>
    
    <!-- Connecting Lines -->
    <line x1="-120" y1="-60" x2="-80" y2="-100" stroke="url(#accent-gradient)" stroke-width="2" opacity="0.4"/>
    <line x1="-80" y1="-100" x2="-100" y2="-20" stroke="url(#accent-gradient)" stroke-width="2" opacity="0.4"/>
    <line x1="120" y1="-60" x2="80" y2="-100" stroke="url(#accent-gradient)" stroke-width="2" opacity="0.4"/>
    <line x1="80" y1="-100" x2="100" y2="-20" stroke="url(#accent-gradient)" stroke-width="2" opacity="0.4"/>
    
    <!-- Abstract Code Blocks -->
    <g opacity="0.3">
      <rect x="-150" y="40" width="80" height="12" rx="2" fill="url(#accent-gradient)"/>
      <rect x="-150" y="58" width="60" height="8" rx="2" fill="url(#neutral-gradient)"/>
      <rect x="-150" y="72" width="70" height="8" rx="2" fill="url(#accent-gradient)"/>
      
      <rect x="70" y="40" width="80" height="12" rx="2" fill="url(#accent-gradient)"/>
      <rect x="70" y="58" width="60" height="8" rx="2" fill="url(#neutral-gradient)"/>
      <rect x="70" y="72" width="70" height="8" rx="2" fill="url(#accent-gradient)"/>
    </g>
    
    <!-- Data Flow Lines -->
    <g opacity="0.2">
      <path d="M -200 -150 Q -100 -180 0 -150 Q 100 -180 200 -150" stroke="url(#accent-gradient)" stroke-width="3" fill="none"/>
      <path d="M -200 150 Q -100 180 0 150 Q 100 180 200 150" stroke="url(#accent-gradient)" stroke-width="3" fill="none"/>
    </g>
    
    <!-- Strategic Elements -->
    <g opacity="0.4">
      <!-- Gear/Strategy Icons -->
      <g transform="translate(-180, 0)">
        <circle cx="0" cy="0" r="25" fill="none" stroke="url(#accent-gradient)" stroke-width="3"/>
        <circle cx="0" cy="0" r="15" fill="url(#accent-gradient)" opacity="0.3"/>
        <rect x="-3" y="-20" width="6" height="8" fill="url(#accent-gradient)"/>
        <rect x="-3" y="12" width="6" height="8" fill="url(#accent-gradient)"/>
        <rect x="-20" y="-3" width="8" height="6" fill="url(#accent-gradient)"/>
        <rect x="12" y="-3" width="8" height="6" fill="url(#accent-gradient)"/>
      </g>
      
      <g transform="translate(180, 0)">
        <circle cx="0" cy="0" r="25" fill="none" stroke="url(#accent-gradient)" stroke-width="3"/>
        <circle cx="0" cy="0" r="15" fill="url(#accent-gradient)" opacity="0.3"/>
        <rect x="-3" y="-20" width="6" height="8" fill="url(#accent-gradient)"/>
        <rect x="-3" y="12" width="6" height="8" fill="url(#accent-gradient)"/>
        <rect x="-20" y="-3" width="8" height="6" fill="url(#accent-gradient)"/>
        <rect x="12" y="-3" width="8" height="6" fill="url(#accent-gradient)"/>
      </g>
    </g>
  </g>
  
  <!-- Floating AI Icons -->
  <g opacity="0.15">
    <!-- AI Brain -->
    <g transform="translate(100, 100)">
      <ellipse cx="0" cy="0" rx="30" ry="25" fill="url(#accent-gradient)"/>
      <circle cx="-10" cy="-5" r="3" fill="white"/>
      <circle cx="10" cy="-5" r="3" fill="white"/>
      <path d="M -15 8 Q 0 15 15 8" stroke="white" stroke-width="2" fill="none"/>
    </g>
    
    <!-- Circuit Board -->
    <g transform="translate(516, 517)">
      <rect x="-20" y="-20" width="40" height="40" rx="4" fill="url(#neutral-gradient)"/>
      <line x1="-15" y1="-10" x2="15" y2="-10" stroke="url(#accent-gradient)" stroke-width="2"/>
      <line x1="-15" y1="0" x2="15" y2="0" stroke="url(#accent-gradient)" stroke-width="2"/>
      <line x1="-15" y1="10" x2="15" y2="10" stroke="url(#accent-gradient)" stroke-width="2"/>
      <circle cx="-10" cy="-10" r="2" fill="url(#accent-gradient)"/>
      <circle cx="10" cy="0" r="2" fill="url(#accent-gradient)"/>
      <circle cx="-5" cy="10" r="2" fill="url(#accent-gradient)"/>
    </g>
  </g>
  
  <!-- Subtle Geometric Patterns -->
  <g opacity="0.05">
    <polygon points="50,50 80,80 50,110 20,80" fill="url(#accent-gradient)"/>
    <polygon points="566,50 596,80 566,110 536,80" fill="url(#accent-gradient)"/>
    <polygon points="50,507 80,537 50,567 20,537" fill="url(#accent-gradient)"/>
    <polygon points="566,507 596,537 566,567 536,537" fill="url(#accent-gradient)"/>
  </g>
</svg>