<svg width="400" height="300" viewBox="0 0 400 300" fill="none" xmlns="http://www.w3.org/2000/svg">
  <defs>
    <linearGradient id="primary-gradient" x1="0%" y1="0%" x2="100%" y2="100%">
      <stop offset="0%" style="stop-color:#f59e0b" />
      <stop offset="100%" style="stop-color:#d97706" />
    </linearGradient>
    <linearGradient id="secondary-gradient" x1="0%" y1="0%" x2="100%" y2="100%">
      <stop offset="0%" style="stop-color:#78716c" />
      <stop offset="100%" style="stop-color:#57534e" />
    </linearGradient>
    <linearGradient id="bg-gradient" x1="0%" y1="0%" x2="100%" y2="100%">
      <stop offset="0%" style="stop-color:#f59e0b;stop-opacity:0.05" />
      <stop offset="100%" style="stop-color:#d97706;stop-opacity:0.1" />
    </linearGradient>
  </defs>
  
  <!-- Background -->
  <rect width="400" height="300" rx="16" fill="url(#bg-gradient)" />
  
  <!-- Strategic Vision Concept -->
  <g transform="translate(200, 150)">
    <!-- Central Eye/Vision -->
    <ellipse cx="0" cy="0" rx="60" ry="35" fill="url(#primary-gradient)" opacity="0.8"/>
    <ellipse cx="0" cy="0" rx="40" ry="25" fill="url(#secondary-gradient)" opacity="0.6"/>
    <circle cx="0" cy="0" r="15" fill="white"/>
    <circle cx="0" cy="0" r="8" fill="url(#primary-gradient)"/>
    
    <!-- Strategic Layers -->
    <g opacity="0.4">
      <!-- Outer strategic ring -->
      <circle cx="0" cy="0" r="80" fill="none" stroke="url(#primary-gradient)" stroke-width="2" stroke-dasharray="5,5"/>
      <circle cx="0" cy="0" r="100" fill="none" stroke="url(#secondary-gradient)" stroke-width="1" stroke-dasharray="3,3"/>
      
      <!-- Strategic Points -->
      <circle cx="80" cy="0" r="6" fill="url(#primary-gradient)"/>
      <circle cx="-80" cy="0" r="6" fill="url(#primary-gradient)"/>
      <circle cx="0" cy="80" r="6" fill="url(#primary-gradient)"/>
      <circle cx="0" cy="-80" r="6" fill="url(#primary-gradient)"/>
      
      <!-- Connecting lines -->
      <line x1="60" y1="0" x2="80" y2="0" stroke="url(#primary-gradient)" stroke-width="2"/>
      <line x1="-60" y1="0" x2="-80" y2="0" stroke="url(#primary-gradient)" stroke-width="2"/>
      <line x1="0" y1="60" x2="0" y2="80" stroke="url(#primary-gradient)" stroke-width="2"/>
      <line x1="0" y1="-60" x2="0" y2="-80" stroke="url(#primary-gradient)" stroke-width="2"/>
    </g>
    
    <!-- Innovation Rays -->
    <g opacity="0.3">
      <line x1="0" y1="0" x2="120" y2="-50" stroke="url(#primary-gradient)" stroke-width="2"/>
      <line x1="0" y1="0" x2="120" y2="50" stroke="url(#primary-gradient)" stroke-width="2"/>
      <line x1="0" y1="0" x2="-120" y2="-50" stroke="url(#primary-gradient)" stroke-width="2"/>
      <line x1="0" y1="0" x2="-120" y2="50" stroke="url(#primary-gradient)" stroke-width="2"/>
    </g>
    
    <!-- Strategic Elements -->
    <g opacity="0.5">
      <!-- Business Strategy Icons -->
      <g transform="translate(120, -50)">
        <rect x="-8" y="-8" width="16" height="16" rx="2" fill="url(#primary-gradient)"/>
        <rect x="-5" y="-5" width="10" height="10" rx="1" fill="white"/>
      </g>
      
      <g transform="translate(120, 50)">
        <circle cx="0" cy="0" r="8" fill="url(#secondary-gradient)"/>
        <circle cx="0" cy="0" r="5" fill="white"/>
      </g>
      
      <g transform="translate(-120, -50)">
        <polygon points="0,-8 8,0 0,8 -8,0" fill="url(#primary-gradient)"/>
        <polygon points="0,-5 5,0 0,5 -5,0" fill="white"/>
      </g>
      
      <g transform="translate(-120, 50)">
        <rect x="-8" y="-8" width="16" height="16" rx="2" fill="url(#secondary-gradient)"/>
        <rect x="-5" y="-5" width="10" height="10" rx="1" fill="white"/>
      </g>
    </g>
  </g>
  
  <!-- Abstract Tech Elements -->
  <g opacity="0.2">
    <rect x="20" y="20" width="30" height="4" rx="2" fill="url(#primary-gradient)"/>
    <rect x="20" y="28" width="20" height="4" rx="2" fill="url(#secondary-gradient)"/>
    <rect x="20" y="36" width="25" height="4" rx="2" fill="url(#primary-gradient)"/>
    
    <rect x="350" y="240" width="30" height="4" rx="2" fill="url(#primary-gradient)"/>
    <rect x="350" y="248" width="20" height="4" rx="2" fill="url(#secondary-gradient)"/>
    <rect x="350" y="256" width="25" height="4" rx="2" fill="url(#primary-gradient)"/>
  </g>
</svg>